<?xml version="1.0" standalone="no"?>
<!DOCTYPE svg PUBLIC "-//W3C//DTD SVG 20010904//EN"
 "http://www.w3.org/TR/2001/REC-SVG-20010904/DTD/svg10.dtd">
<svg version="1.0" xmlns="http://www.w3.org/2000/svg"
 width="3000.000000pt" height="2000.000000pt" viewBox="0 0 3000.000000 2000.000000"
 preserveAspectRatio="xMidYMid meet">

<g transform="translate(0.000000,2000.000000) scale(0.100000,-0.100000)"
fill="#000000" stroke="none">
<path d="M11694 16423 c-36 -5 -44 -21 -44 -93 0 -61 24 -152 58 -214 40 -75
201 -233 309 -304 96 -62 280 -159 395 -207 64 -26 68 -27 84 -10 16 15 30 17
113 11 53 -4 180 -9 284 -12 l187 -5 0 46 c0 25 5 45 10 45 6 0 10 10 10 23 0
13 4 27 9 33 5 5 12 32 16 59 l7 50 -27 -50 c-15 -27 -31 -54 -36 -59 -15 -16
-11 8 8 45 9 18 18 47 19 64 1 16 10 55 18 85 9 30 16 79 16 110 1 30 5 75 11
100 21 101 22 107 8 107 -32 1 -344 47 -594 88 -398 65 -492 76 -760 89 -38 2
-84 1 -101 -1z m1373 -595 c-3 -8 -6 -5 -6 6 -1 11 2 17 5 13 3 -3 4 -12 1
-19z m-20 -60 c-3 -8 -6 -5 -6 6 -1 11 2 17 5 13 3 -3 4 -12 1 -19z"/>
<path d="M13200 16221 c0 -6 4 -13 10 -16 6 -3 7 1 4 9 -7 18 -14 21 -14 7z"/>
<path d="M21557 14057 c3 -29 6 -53 7 -54 1 -1 47 -5 101 -8 197 -11 412 -48
438 -74 30 -30 -177 -257 -360 -394 -229 -172 -506 -342 -973 -594 -312 -169
-597 -311 -788 -393 -132 -57 -163 -82 -183 -151 -16 -52 -4 -87 40 -116 43
-29 64 -29 148 2 37 14 214 74 393 134 561 188 951 343 1310 522 358 178 564
314 736 484 156 155 244 305 248 423 l1 44 -110 34 c-358 113 -760 201 -835
181 -11 -3 -20 -2 -20 2 0 4 -20 7 -45 7 -31 1 -45 -4 -45 -13 0 -17 -19 -17
-26 0 -2 7 -13 13 -24 14 -17 2 -18 -3 -13 -50z"/>
<path d="M21522 14088 c-7 -7 -11 -30 -10 -52 l1 -41 7 45 7 45 1 -42 c2 -54
22 -57 22 -3 0 22 -5 40 -11 40 -5 0 -7 5 -4 10 8 14 2 13 -13 -2z"/>
<path d="M10743 12775 c0 -8 4 -12 9 -9 5 3 6 10 3 15 -9 13 -12 11 -12 -6z"/>
<path d="M10962 12745 c-1 -11 -11 -27 -22 -35 -11 -8 -20 -20 -20 -27 0 -7
-4 -13 -10 -13 -14 0 -12 12 6 39 16 23 16 23 -7 16 -28 -9 -37 -21 -46 -57
-9 -45 -33 -35 -34 15 0 34 -2 38 -9 21 -5 -12 -14 -25 -21 -30 -8 -5 -10 -3
-4 6 5 9 4 11 -4 6 -9 -6 -9 -11 0 -22 8 -10 8 -18 1 -26 -7 -9 -4 -35 9 -83
10 -38 19 -74 19 -78 0 -5 4 -5 10 -2 5 3 7 0 4 -9 -3 -8 0 -25 7 -38 7 -13
12 -26 11 -30 -1 -5 2 -8 8 -8 5 0 7 -7 4 -15 -4 -10 0 -13 13 -10 24 6 100
33 138 50 17 7 47 19 68 25 20 6 35 15 33 19 -3 4 6 8 19 9 12 1 33 6 46 11
13 5 28 9 33 9 5 0 13 7 18 16 5 9 16 16 25 16 9 0 22 8 29 18 11 13 13 13 11
2 -2 -8 -2 -12 0 -7 3 4 10 4 16 0 7 -4 6 1 -2 10 -7 9 -17 14 -22 11 -5 -3
-9 15 -9 40 0 52 -10 58 -30 20 -8 -14 -22 -30 -32 -35 -16 -9 -18 -4 -19 53
-1 56 -2 60 -12 36 -7 -19 -18 -28 -33 -28 -17 0 -23 8 -29 43 l-7 42 -15 -42
c-8 -24 -20 -43 -27 -43 -6 0 -19 19 -28 43 -9 23 -17 34 -17 25 -1 -16 -42
-68 -54 -68 -3 0 -8 28 -10 63 -2 34 -4 53 -5 42z m-7 -115 c-3 -5 -10 -10
-16 -10 -5 0 -9 5 -9 10 0 6 7 10 16 10 8 0 12 -4 9 -10z m135 -79 c0 -6 -4
-13 -10 -16 -5 -3 -10 1 -10 9 0 9 5 16 10 16 6 0 10 -4 10 -9z m140 -12 c0
-5 -7 -9 -15 -9 -9 0 -12 6 -9 15 6 15 24 11 24 -6z m34 13 c3 -5 -1 -9 -9 -9
-8 0 -15 4 -15 9 0 4 4 8 9 8 6 0 12 -4 15 -8z m-414 -27 c0 -8 -2 -15 -4 -15
-2 0 -6 7 -10 15 -3 8 -1 15 4 15 6 0 10 -7 10 -15z"/>
<path d="M10775 12717 c-14 -11 -15 -16 -5 -22 9 -6 11 -4 5 5 -6 9 -4 12 7 8
9 -4 15 0 15 8 0 17 1 17 -22 1z"/>
<path d="M11395 12620 c-3 -5 -2 -18 4 -27 7 -14 9 -12 8 10 -2 30 -3 31 -12
17z"/>
<path d="M11334 12573 c-10 -16 -7 -18 21 -19 19 0 32 5 32 12 0 9 -5 10 -18
3 -13 -6 -18 -5 -21 6 -2 13 -5 13 -14 -2z"/>
<path d="M11470 11651 c0 -7 -10 -23 -22 -34 l-23 -19 25 7 c36 10 44 21 31
42 -7 12 -10 13 -11 4z"/>
<path d="M11435 11639 c-4 -6 -5 -12 -2 -15 2 -3 7 2 10 11 7 17 1 20 -8 4z"/>
<path d="M11316 11598 c-10 -5 -23 -11 -29 -12 -36 -7 -97 -30 -95 -36 2 -3
21 -49 42 -101 39 -94 40 -96 72 -95 l33 1 3 88 c2 50 -1 87 -6 87 -6 0 -5 5
2 12 17 17 15 31 -4 24 -8 -3 -12 -2 -9 4 3 6 0 10 -7 11 -7 1 -2 4 12 8 14 4
20 10 15 13 -6 4 -19 2 -29 -4z m-3 -59 c3 -10 1 -19 -4 -19 -5 0 -9 5 -9 11
0 6 -6 9 -14 6 -9 -4 -12 0 -9 13 6 23 29 16 36 -11z m-43 18 c0 -2 -10 -12
-22 -23 l-23 -19 19 23 c18 21 26 27 26 19z"/>
<path d="M11484 11440 c0 -91 2 -128 3 -82 2 45 2 119 0 165 -1 45 -3 8 -3
-83z"/>
<path d="M11351 11351 c-8 -5 -23 -8 -34 -5 -33 6 -36 -4 -14 -49 11 -23 22
-48 23 -55 3 -15 110 -265 132 -307 9 -16 15 -33 14 -37 -1 -5 3 -9 8 -9 6 -1
14 -2 19 -3 5 0 13 -5 18 -10 4 -5 3 -6 -4 -2 -20 11 -22 -7 -6 -44 9 -19 17
-40 18 -45 5 -21 42 -75 48 -69 3 3 3 -4 0 -15 -4 -16 -2 -20 9 -16 9 4 14 -2
15 -16 1 -12 7 -26 14 -30 14 -8 49 -6 67 5 8 5 10 2 6 -9 -4 -9 -13 -14 -22
-10 -8 3 -21 0 -28 -6 -11 -9 -14 -9 -14 0 0 7 -5 9 -11 5 -8 -5 -4 -13 12
-26 21 -17 21 -19 4 -14 l-20 6 20 -15 c19 -15 20 -14 25 6 8 34 34 38 28 5
-4 -18 -1 -26 8 -26 8 0 14 -4 14 -10 0 -5 5 -10 10 -10 6 0 10 15 10 34 0 19
3 41 6 50 5 13 9 12 23 -6 11 -13 24 -19 34 -15 13 5 15 16 10 60 -4 35 -2 57
6 61 7 5 11 -2 11 -19 0 -17 5 -25 13 -22 12 4 67 -49 67 -65 0 -4 7 -8 15 -8
8 0 15 -4 15 -10 0 -5 5 -10 10 -10 6 0 10 11 10 25 0 14 -4 25 -10 25 -5 0
-10 -5 -10 -11 0 -5 -5 -7 -10 -4 -6 4 -5 12 4 21 20 19 25 18 53 -12 13 -14
25 -25 26 -23 2 2 11 22 21 44 19 43 15 44 56 -14 18 -26 30 -27 30 -2 0 47
32 33 74 -32 13 -18 27 -27 45 -27 l26 0 -25 19 c-19 16 -24 27 -22 60 2 35 0
41 -17 41 -11 0 -21 -8 -24 -17 -2 -11 -8 -2 -16 25 -6 23 -16 42 -21 42 -5 0
-15 -19 -21 -42 -15 -51 -23 -30 -11 27 7 33 12 40 32 40 20 0 26 -6 31 -30 5
-25 7 -27 14 -12 4 9 5 27 2 39 -4 12 -1 28 5 35 9 11 13 10 25 -4 10 -13 16
-15 19 -5 10 22 21 13 16 -13 -4 -23 5 -31 31 -26 5 1 14 -12 20 -28 15 -41
37 -48 38 -13 1 15 1 31 0 35 -1 5 3 6 9 2 5 -3 10 -18 10 -33 0 -15 5 -34 10
-42 9 -13 11 -13 20 0 5 8 10 21 10 28 0 6 5 12 10 12 6 0 10 -7 10 -15 0 -8
5 -15 11 -15 6 0 9 7 5 15 -4 11 1 15 17 15 13 0 27 4 32 8 6 5 21 3 35 -5 23
-14 24 -14 3 -10 -19 4 -23 1 -23 -17 0 -12 5 -27 12 -34 6 -6 8 -15 4 -19 -4
-4 -10 -2 -14 4 -8 12 -92 22 -92 10 0 -4 -8 -11 -17 -14 -28 -11 -45 -31 -32
-38 6 -4 17 2 25 14 18 25 74 30 74 6 0 -14 12 -19 33 -16 4 0 7 -5 7 -12 0
-8 3 -8 9 2 8 12 12 12 25 2 17 -14 66 -7 66 9 0 6 -4 10 -10 10 -5 0 -10 9
-10 20 0 11 -4 20 -10 20 -5 0 -7 -7 -4 -15 4 -8 1 -15 -5 -15 -6 0 -11 5 -11
11 0 5 -4 7 -10 4 -11 -7 -13 6 -4 29 5 12 15 15 45 10 28 -5 39 -3 39 6 0 8
13 4 36 -10 26 -15 40 -18 47 -11 8 8 4 11 -13 11 -18 0 -21 3 -12 12 8 8 15
8 27 -2 17 -14 20 -50 4 -50 -6 0 -17 -7 -25 -15 -8 -8 -21 -12 -29 -9 -8 4
-15 4 -15 1 0 -6 49 -57 54 -57 2 0 7 15 11 33 4 17 9 26 12 20 2 -7 11 -13
19 -13 7 0 11 6 8 14 -3 9 3 17 15 21 21 6 29 25 11 25 -5 0 -10 -4 -10 -10 0
-5 -4 -10 -10 -10 -5 0 -10 13 -10 30 0 29 0 29 21 12 12 -9 27 -23 35 -30 8
-7 19 -10 24 -7 6 4 17 2 24 -4 10 -9 21 -8 42 1 22 10 28 10 32 0 2 -6 9 -12
15 -12 6 0 22 -12 34 -27 17 -20 23 -22 23 -10 0 21 19 22 26 2 9 -23 26 -6
18 18 -9 30 -11 32 -29 17 -10 -8 -15 -9 -15 -1 0 6 5 11 12 11 6 0 8 3 5 7
-9 8 12 33 27 33 6 0 4 -5 -4 -10 -13 -9 -13 -12 3 -24 9 -7 17 -21 17 -30 0
-10 5 -14 12 -10 7 4 8 3 4 -5 -4 -6 -2 -18 4 -26 10 -13 8 -15 -14 -15 -14 0
-26 -3 -26 -8 0 -12 88 -29 102 -20 9 6 7 8 -6 6 -10 -2 -20 4 -21 12 -2 8 -6
24 -10 35 -6 18 -5 18 5 3 6 -10 20 -23 31 -29 19 -9 20 -8 14 10 -5 17 -3 20
12 14 10 -4 24 -14 31 -22 11 -14 13 -14 26 2 8 10 17 14 20 9 3 -6 -1 -12 -9
-16 -8 -3 -15 -12 -15 -20 0 -10 6 -13 16 -9 9 3 20 0 26 -8 7 -11 11 -11 15
-1 6 14 73 17 73 2 0 -5 9 -10 19 -10 11 0 26 -7 35 -15 8 -8 21 -15 28 -15 8
0 19 -5 26 -12 7 -7 12 -9 12 -5 0 4 9 3 21 -3 16 -9 24 -8 38 4 15 14 18 13
29 -4 7 -11 21 -20 32 -20 11 0 25 -9 32 -19 6 -11 18 -17 26 -13 11 4 13 1 7
-7 -6 -10 -3 -11 15 -1 15 8 20 8 16 1 -9 -13 17 -41 37 -41 26 0 47 -12 47
-26 0 -8 -9 -14 -20 -14 -24 0 -150 60 -150 71 0 5 -5 9 -10 9 -21 0 9 -37 40
-50 16 -7 30 -16 30 -21 0 -5 11 -9 24 -9 14 0 28 -4 31 -10 9 -15 75 -13 75
3 0 8 4 7 10 -3 6 -8 8 -26 7 -40 -2 -14 -2 -19 0 -12 3 6 13 12 24 12 10 0
19 4 19 8 0 4 16 8 35 9 26 1 40 -5 54 -23 18 -23 38 -34 26 -14 -3 6 2 10 11
10 10 0 14 -3 11 -7 -11 -11 43 -53 68 -53 13 0 27 -4 30 -10 3 -5 -1 -10 -10
-10 -9 0 -13 -4 -10 -10 3 -5 15 -10 27 -10 14 0 18 -5 14 -15 -3 -9 0 -15 9
-15 7 0 21 -7 29 -16 15 -14 16 -13 16 8 1 22 1 22 15 4 14 -18 15 -18 15 -2
0 9 5 14 10 11 16 -10 12 -43 -7 -53 -15 -9 -12 -13 18 -31 19 -11 40 -21 47
-21 6 0 12 -4 12 -10 0 -5 10 -21 21 -35 17 -19 26 -22 40 -14 24 12 25 32 2
25 -21 -7 -34 1 -50 31 -18 32 -16 39 6 19 13 -11 27 -15 40 -11 15 4 21 2 21
-9 0 -9 11 -18 25 -22 14 -3 26 -9 26 -13 1 -3 3 -19 5 -35 4 -33 12 -45 22
-30 4 6 18 7 32 3 l25 -7 -27 -1 c-16 -1 -28 -6 -28 -12 0 -5 8 -10 18 -9 26
3 62 -11 62 -24 0 -10 44 -36 63 -36 4 0 24 -16 43 -36 42 -45 77 -65 95 -53
18 11 31 -11 17 -28 -13 -16 12 -47 54 -69 36 -19 40 -18 33 9 -6 21 -6 21 9
3 9 -11 16 -24 16 -29 0 -4 5 -5 10 -2 6 4 7 12 4 18 -4 7 7 -1 24 -17 33 -30
41 -43 20 -30 -8 5 -9 2 -5 -10 4 -10 7 -20 7 -22 0 -3 5 -2 10 1 6 3 10 2 10
-4 0 -6 8 -7 17 -4 15 6 16 5 3 -9 -8 -9 -19 -13 -25 -10 -5 3 -4 -2 4 -11 13
-17 36 -14 26 4 -4 5 -1 9 5 9 6 0 10 -6 9 -12 -4 -30 2 -38 27 -38 20 0 25
-4 20 -16 -3 -8 -2 -13 3 -10 4 3 23 -14 41 -37 55 -70 56 -72 43 -63 -9 5
-11 2 -7 -8 3 -9 9 -14 13 -12 13 8 139 -181 201 -305 l29 -56 83 -6 c230 -18
392 -112 494 -286 24 -42 44 -69 44 -62 0 8 -9 67 -20 133 -65 378 -199 719
-409 1035 -418 632 -1131 1113 -1966 1326 -381 97 -485 106 -1314 108 -700 2
-795 5 -797 27 -1 6 -2 30 -3 52 -1 34 -4 40 -23 40 -13 0 -29 -4 -37 -9z
m-20 -34 c-6 -8 -8 -17 -4 -20 3 -4 1 -7 -5 -7 -15 0 -15 13 0 28 16 16 23 15
9 -1z m599 -441 c0 -2 -9 -2 -20 1 -11 3 -20 9 -20 15 0 5 9 4 20 -2 11 -6 20
-12 20 -14z m100 -74 c0 -10 11 -29 25 -42 14 -13 25 -27 25 -32 0 -15 -28 -8
-35 10 -7 16 -8 15 -16 -3 -8 -16 -8 -15 -4 7 4 19 -1 34 -14 47 -13 13 -16
21 -8 25 22 8 27 6 27 -12z m-433 -69 c0 -9 -4 -10 -14 -2 -7 6 -13 12 -13 14
0 1 6 2 13 2 8 0 14 -6 14 -14z m1333 -53 c0 -5 -2 -10 -4 -10 -3 0 -8 5 -11
10 -3 6 -1 10 4 10 6 0 11 -4 11 -10z m-753 -32 c-3 -8 -6 -5 -6 6 -1 11 2 17
5 13 3 -3 4 -12 1 -19z m-522 -38 c-3 -5 -11 -10 -16 -10 -6 0 -7 5 -4 10 3 6
11 10 16 10 6 0 7 -4 4 -10z m1790 -120 c3 -5 1 -10 -4 -10 -6 0 -11 5 -11 10
0 6 2 10 4 10 3 0 8 -4 11 -10z m1149 -632 c-5 -8 -1 -9 12 -4 14 5 16 4 7 -5
-13 -13 -37 -3 -28 12 4 5 8 9 11 9 3 0 2 -5 -2 -12z m97 -65 c13 -16 12 -17
-3 -4 -10 7 -18 15 -18 17 0 8 8 3 21 -13z"/>
<path d="M9080 10801 c0 -5 6 -11 13 -14 6 -3 2 -4 -10 -4 -12 1 -20 5 -17 9
7 12 -222 -104 -373 -188 -185 -103 -356 -212 -472 -300 -173 -132 -308 -238
-372 -294 -89 -76 -293 -275 -341 -333 l-40 -47 43 -40 c119 -109 346 -182
652 -211 163 -15 661 -7 887 15 393 38 927 111 1205 166 28 6 158 31 290 56
132 25 391 78 575 119 184 41 365 79 401 85 85 15 125 40 149 93 27 58 25 104
-7 167 -49 95 -111 108 -338 70 -108 -18 -429 -54 -715 -80 -58 -6 -125 -12
-150 -15 -25 -2 -76 -7 -115 -10 -38 -3 -95 -8 -125 -10 -221 -19 -698 -46
-958 -56 -458 -16 -915 7 -1135 57 l-69 16 29 30 c108 115 401 303 792 510
107 57 197 109 199 117 3 9 0 11 -9 6 -11 -6 -12 -5 -2 5 10 11 9 16 -5 27
-16 12 -16 13 2 6 13 -4 17 -3 12 5 -4 7 -3 12 3 12 5 0 13 -4 16 -10 3 -5 0
-10 -7 -10 -9 0 -9 -3 2 -10 13 -9 13 -10 0 -10 -11 -1 -11 -3 3 -11 23 -13
34 -4 18 15 -9 11 -9 15 1 19 10 4 10 6 1 6 -7 1 -13 6 -13 12 0 5 6 7 13 3 6
-4 3 2 -7 14 -21 24 -26 27 -26 13z"/>
<path d="M9136 10758 c3 -5 10 -6 15 -3 13 9 11 12 -6 12 -8 0 -12 -4 -9 -9z"/>
<path d="M12185 10750 c-7 -22 14 -50 39 -50 9 0 16 -7 16 -16 0 -9 10 -25 21
-35 l22 -19 -23 -8 c-17 -6 -20 -11 -10 -17 8 -5 20 1 32 16 13 16 21 20 24
12 4 -10 8 -10 18 0 22 20 8 33 -31 29 l-36 -5 5 44 c3 24 4 38 1 32 -8 -23
-40 -14 -47 12 -8 30 -22 32 -31 5z"/>
<path d="M12600 10664 c0 -8 5 -12 10 -9 6 4 8 11 5 16 -9 14 -15 11 -15 -7z"/>
<path d="M12880 10619 c0 -8 -18 -10 -60 -6 -33 4 -62 3 -65 -3 -7 -12 16 -50
32 -50 6 0 14 -6 16 -12 3 -8 6 -5 6 6 1 12 6 16 17 12 12 -4 14 -1 9 14 -9
28 18 26 30 -2 6 -13 17 -23 25 -24 11 -1 11 0 1 3 -9 4 -12 15 -8 39 3 19 4
34 1 34 -2 0 -4 -5 -4 -11z"/>
<path d="M12958 10548 c9 -9 15 -9 24 0 9 9 7 12 -12 12 -19 0 -21 -3 -12 -12z"/>
<path d="M13141 10519 c9 -8 26 -25 37 -38 l22 -25 0 26 c0 16 -7 28 -17 31
-10 2 -27 8 -38 12 -18 7 -18 6 -4 -6z"/>
<path d="M13280 10490 c0 -5 7 -10 15 -10 8 0 19 -9 25 -20 6 -11 19 -20 30
-20 10 0 23 -7 28 -16 5 -9 14 -14 21 -10 21 13 11 25 -30 37 -22 7 -45 21
-50 31 -10 19 -39 25 -39 8z"/>
<path d="M11921 10454 c0 -11 3 -14 6 -6 3 7 2 16 -1 19 -3 4 -6 -2 -5 -13z"/>
<path d="M13820 10255 c0 -8 5 -15 10 -15 6 0 10 7 10 15 0 8 -4 15 -10 15 -5
0 -10 -7 -10 -15z"/>
<path d="M13953 10186 c13 -14 29 -26 36 -26 18 0 13 27 -6 33 -10 2 -26 8
-36 12 -14 6 -13 2 6 -19z"/>
<path d="M14328 9963 c7 -3 16 -2 19 1 4 3 -2 6 -13 5 -11 0 -14 -3 -6 -6z"/>
<path d="M14836 9625 c4 -8 11 -15 16 -15 6 0 5 6 -2 15 -7 8 -14 15 -16 15
-2 0 -1 -7 2 -15z"/>
<path d="M17515 5593 c-11 -2 -26 -12 -32 -21 -17 -21 -17 -103 0 -126 19 -25
90 -33 122 -12 22 14 25 23 25 75 0 35 -5 63 -12 69 -16 13 -76 22 -103 15z"/>
<path d="M19210 5594 c-28 -11 -40 -38 -40 -90 0 -43 4 -56 22 -68 32 -23 94
-20 118 4 23 23 28 106 8 133 -14 17 -82 30 -108 21z"/>
<path d="M14846 5577 c-17 -13 -18 -42 -11 -615 l8 -602 53 0 54 0 0 615 0
615 -43 0 c-24 0 -51 -6 -61 -13z"/>
<path d="M16908 5583 c-17 -4 -18 -42 -18 -614 l0 -609 60 0 60 0 0 615 0 615
-42 -1 c-24 -1 -51 -3 -60 -6z"/>
<path d="M9690 5463 c-30 -2 -65 -5 -77 -8 l-23 -5 0 -545 0 -545 223 0 c286
0 363 17 445 94 59 54 96 153 106 276 20 247 13 451 -19 558 -21 69 -80 135
-143 158 -39 15 -83 18 -252 19 -113 1 -230 0 -260 -2z m451 -124 c62 -34 86
-83 100 -205 13 -118 5 -402 -15 -487 -19 -79 -55 -130 -113 -158 -44 -22 -63
-24 -226 -27 l-177 -4 2 449 3 448 75 6 c41 4 127 6 191 4 102 -2 122 -5 160
-26z"/>
<path d="M16119 5456 c-67 -18 -136 -62 -170 -109 -29 -40 -63 -136 -73 -207
-13 -88 -17 -314 -7 -411 26 -263 117 -362 352 -384 75 -8 226 8 285 29 42 15
47 32 26 87 l-10 26 -69 -18 c-42 -11 -106 -18 -169 -18 -90 -1 -106 2 -155
27 -99 50 -128 124 -136 347 -10 268 22 435 94 494 66 55 198 67 338 31 43
-11 83 -20 90 -20 9 0 35 72 35 99 0 34 -329 55 -431 27z"/>
<path d="M12999 5388 c0 -28 -8 -102 -15 -145 -4 -30 -7 -32 -52 -35 l-47 -3
-3 -49 -3 -48 50 3 51 4 1 -280 c0 -154 2 -291 5 -305 2 -14 6 -39 9 -57 7
-39 46 -88 89 -110 61 -33 252 -15 307 29 15 12 15 16 -3 55 l-19 42 -50 -19
c-72 -29 -150 -27 -186 4 l-28 24 -3 306 -3 306 125 0 126 0 0 50 0 50 -125 0
-125 0 0 100 0 100 -50 0 c-45 0 -50 -2 -51 -22z"/>
<path d="M11036 5220 c-178 -32 -249 -132 -260 -366 -6 -121 10 -282 35 -348
26 -70 80 -120 154 -141 67 -20 216 -27 305 -14 59 8 200 45 200 53 0 1 -7 24
-16 50 -12 36 -20 46 -33 42 -98 -32 -175 -46 -255 -47 -144 -1 -200 21 -235
95 -20 40 -44 204 -32 210 3 2 38 0 76 -4 82 -9 471 -11 491 -3 11 4 14 29 14
102 0 276 -71 366 -297 376 -54 2 -120 0 -147 -5z m183 -101 c96 -20 131 -70
139 -196 l5 -83 -234 2 -233 3 2 50 c5 87 29 151 67 182 57 46 158 63 254 42z"/>
<path d="M12196 5214 c-32 -8 -88 -29 -122 -48 l-64 -34 -6 39 -7 39 -53 0
-54 0 0 -425 0 -425 60 0 60 0 0 335 0 335 25 16 c56 37 168 67 252 68 80 1
83 0 115 -32 l33 -32 3 -345 3 -345 59 0 60 0 0 338 c0 379 -5 419 -64 478
-52 52 -176 68 -300 38z"/>
<path d="M13885 5216 c-38 -8 -77 -15 -86 -15 -8 -1 -24 -7 -34 -15 -17 -12
-17 -17 -5 -60 11 -41 16 -47 34 -42 108 31 142 37 228 37 134 -1 188 -27 218
-106 10 -27 16 -162 7 -171 -2 -2 -39 6 -83 18 -115 31 -312 32 -369 2 -87
-47 -109 -96 -110 -244 0 -134 18 -188 78 -234 84 -64 265 -54 419 23 84 42
79 43 92 -24 6 -29 8 -30 55 -27 l48 4 -4 316 c-5 358 -11 398 -69 462 -50 55
-123 80 -249 85 -62 3 -127 -1 -170 -9z m279 -450 c43 -9 80 -17 82 -18 2 -3
6 -163 5 -196 -1 -21 -160 -90 -233 -102 -139 -21 -201 12 -213 114 -9 69 -1
146 17 175 26 41 65 52 168 47 52 -3 131 -12 174 -20z"/>
<path d="M18400 5220 c-64 -12 -129 -37 -172 -65 -21 -14 -40 -25 -42 -25 -3
0 -6 17 -8 38 l-3 37 -52 3 -53 3 0 -425 0 -426 60 0 60 0 0 339 0 338 60 27
c34 15 95 34 136 43 135 27 208 -1 225 -87 4 -25 8 -183 9 -352 l0 -308 60 0
60 0 0 313 c0 423 -11 479 -102 525 -53 26 -163 37 -238 22z"/>
<path d="M19990 5219 c-67 -13 -145 -55 -175 -94 -57 -76 -69 -132 -69 -335
-1 -205 8 -261 54 -333 40 -64 126 -105 235 -113 106 -8 268 16 314 45 11 7
11 16 -4 55 -12 32 -23 45 -32 42 -56 -22 -149 -37 -225 -37 -152 0 -201 46
-220 204 -12 100 -3 276 17 343 9 31 28 63 50 84 35 34 38 35 129 38 66 3 112
-1 157 -13 112 -30 103 -32 121 24 l16 50 -27 10 c-85 35 -243 49 -341 30z"/>
<path d="M17490 4785 l0 -425 60 0 60 0 0 425 0 425 -60 0 -60 0 0 -425z"/>
<path d="M19190 4785 l0 -425 60 0 60 0 0 425 0 425 -60 0 -60 0 0 -425z"/>
<path d="M18053 3723 c-22 -4 -23 -8 -23 -134 0 -71 -2 -129 -4 -129 -2 0 -33
7 -68 16 -75 20 -178 15 -226 -10 -23 -12 -41 -33 -55 -64 -19 -41 -22 -65
-22 -197 0 -140 2 -153 25 -200 33 -66 73 -89 157 -88 50 0 77 7 125 31 34 17
66 28 70 26 4 -3 8 -17 8 -31 0 -23 3 -25 32 -19 17 3 32 7 32 9 1 1 0 181 -2
400 -3 295 -7 397 -15 396 -7 -1 -22 -4 -34 -6z m-50 -322 l27 -11 0 -173 0
-174 -53 -27 c-70 -35 -143 -44 -185 -22 -51 26 -57 47 -57 196 0 149 5 180
37 212 19 19 29 20 112 15 50 -2 103 -10 119 -16z"/>
<path d="M11973 3643 l-63 -4 0 -361 0 -361 158 6 c211 6 266 27 312 118 27
53 43 196 37 334 -11 260 -60 289 -444 268z m292 -79 c20 -9 40 -30 50 -50 34
-73 28 -380 -9 -452 -29 -55 -58 -66 -193 -70 l-123 -4 0 296 0 296 121 0 c89
0 130 -4 154 -16z"/>
<path d="M13665 3641 c-133 -35 -175 -122 -175 -361 0 -219 34 -305 136 -344
84 -32 304 -20 304 17 0 7 -3 22 -6 33 -6 21 -7 21 -57 8 -126 -33 -232 -6
-271 71 -19 36 -21 58 -21 215 0 162 2 178 23 222 15 31 34 51 56 62 40 19
146 21 212 5 25 -6 47 -10 49 -7 3 2 8 18 11 35 5 26 2 31 -18 37 -37 11 -210
16 -243 7z"/>
<path d="M12775 3476 c-16 -7 -38 -23 -49 -34 -22 -25 -36 -20 -36 14 0 21 -5
24 -35 24 l-35 0 2 -277 3 -278 38 -3 37 -3 0 220 0 220 37 26 c29 19 50 25
91 25 l53 0 -3 38 c-3 35 -5 37 -38 39 -19 2 -48 -3 -65 -11z"/>
<path d="M14177 3479 c-97 -28 -132 -112 -125 -308 3 -104 8 -133 26 -167 31
-61 90 -87 196 -87 101 0 146 14 185 58 40 46 54 120 49 269 -4 146 -19 186
-82 218 -48 25 -186 34 -249 17z m195 -71 c45 -17 58 -61 58 -202 0 -187 -25
-226 -143 -226 -128 0 -150 28 -155 199 -6 181 12 223 99 240 47 9 98 6 141
-11z"/>
<path d="M14852 3473 c-18 -9 -41 -26 -51 -39 l-19 -24 -6 35 c-6 31 -11 35
-36 35 l-30 0 0 -280 0 -280 35 0 35 0 0 220 0 219 43 26 c30 17 59 25 89 25
44 0 46 1 51 33 2 18 0 35 -7 39 -19 13 -69 8 -104 -9z"/>
<path d="M15282 3476 c-23 -8 -54 -21 -67 -30 -31 -21 -32 -21 -39 9 -5 20
-13 25 -36 25 l-30 0 0 -280 0 -280 35 0 35 0 0 224 0 224 50 21 c28 12 79 24
114 28 60 5 66 4 90 -20 l26 -26 0 -226 0 -225 40 0 40 0 -1 223 c-1 242 -8
288 -51 320 -34 25 -145 33 -206 13z"/>
<path d="M15883 3480 c-58 -14 -97 -44 -123 -95 -23 -45 -25 -62 -25 -175 0
-69 4 -142 8 -163 11 -52 60 -104 110 -118 54 -15 177 -15 247 0 77 16 82 21
70 58 l-11 30 -42 -15 c-23 -8 -76 -17 -117 -19 -130 -9 -177 26 -187 137 l-6
61 144 -6 c79 -3 164 -2 189 2 l45 9 -2 91 c-2 124 -27 169 -110 199 -41 14
-138 17 -190 4z m178 -76 c31 -16 49 -60 49 -120 l0 -44 -150 0 -150 0 0 40
c0 53 22 105 52 121 55 30 145 31 199 3z"/>
<path d="M16470 3477 c-53 -12 -55 -13 -52 -42 2 -16 5 -32 7 -34 2 -2 24 2
49 8 25 6 79 11 120 11 69 0 78 -3 108 -29 27 -24 32 -36 36 -90 2 -33 0 -61
-4 -61 -5 0 -41 7 -79 15 -144 30 -242 9 -270 -59 -22 -53 -20 -173 5 -213 31
-52 63 -67 140 -66 62 1 100 12 207 59 7 4 13 -6 15 -23 3 -24 7 -28 32 -26
16 1 30 4 32 6 2 2 0 105 -4 229 -8 255 -11 264 -87 302 -49 24 -175 31 -255
13z m170 -282 c104 -11 100 -8 100 -85 l0 -69 -55 -26 c-63 -31 -169 -44 -203
-26 -27 15 -46 82 -37 137 9 61 43 86 110 78 17 -2 55 -6 85 -9z"/>
<path d="M17022 3247 c3 -211 5 -235 24 -267 27 -46 66 -64 140 -63 56 0 99
14 186 61 3 1 9 -11 13 -29 6 -29 10 -31 38 -25 17 3 31 7 31 9 1 1 0 125 -2
275 l-3 272 -40 0 -40 0 3 -220 3 -221 -40 -19 c-108 -52 -204 -47 -224 12 -7
18 -11 116 -11 239 l0 209 -41 0 -41 0 4 -233z"/>
<path d="M9390 3290 c0 -20 7 -20 1030 -20 1023 0 1030 0 1030 20 0 20 -7 20
-1030 20 -1023 0 -1030 0 -1030 -20z"/>
<path d="M18462 3293 c3 -17 62 -18 1036 -21 1027 -2 1032 -2 1032 18 0 20 -6
20 -1036 20 -981 0 -1035 -1 -1032 -17z"/>
<path d="M12990 3005 c-22 -57 14 -100 70 -85 22 6 25 11 25 56 l0 49 -43 3
c-38 3 -43 0 -52 -23z"/>
</g>
</svg>
